# This file uses centimeters as units for non-parametric coordinates.

mtllib back.mtl
g default
v 343.000000 547.688478 227.000000
v 343.000000 547.688478 332.000000
v 213.000000 547.688478 332.000000
v 213.000000 547.688478 227.000000
vt 0.000000 0.000000
vt 0.000000 0.000000
vt 0.000000 0.000000
vt 0.000000 0.000000
vn 0.000000 -1.000000 0.000000
vn 0.000000 -1.000000 0.000000
vn 0.000000 -1.000000 0.000000
vn 0.000000 -1.000000 0.000000
vn 0.000000 -1.000000 0.000000
vn 0.000000 -1.000000 0.000000
s off
g back:Mesh7
usemtl back:Light
f 1/1/1 2/2/2 3/3/3
f 1/1/4 3/3/5 4/4/6
g default
v 556.000000 548.799988 0.000000
v 556.000000 548.799988 559.200012
v 0.000000 548.799988 559.200012
v 0.000000 548.799988 0.000000
vt 0.000000 0.000000
vt 0.000000 0.000000
vt 0.000000 0.000000
vt 0.000000 0.000000
vn 0.000000 -1.000000 0.000000
vn 0.000000 -1.000000 0.000000
vn 0.000000 -1.000000 0.000000
vn 0.000000 -1.000000 0.000000
vn 0.000000 -1.000000 0.000000
vn 0.000000 -1.000000 0.000000
s off
g back:Mesh3
usemtl back:DiffuseWhite
f 5/5/7 6/6/8 7/7/9
f 5/5/10 7/7/11 8/8/12
g default
v 343.000000 548.799988 -173.000000
v 343.000000 548.799988 -68.000000
v 213.000000 548.799988 -68.000000
v 213.000000 548.799988 -173.000000
vt 0.000000 0.000000
vt 0.000000 0.000000
vt 0.000000 0.000000
vt 0.000000 0.000000
vn 0.000000 -1.000000 0.000000
vn 0.000000 -1.000000 0.000000
vn 0.000000 -1.000000 0.000000
vn 0.000000 -1.000000 0.000000
vn 0.000000 -1.000000 0.000000
vn 0.000000 -1.000000 0.000000
s off
g back:Mesh1
usemtl back:Light
f 9/9/13 10/10/14 11/11/15
f 9/9/16 11/11/17 12/12/18
g default
v 218.615294 2.553388 515.772815
v 399.259940 2.553388 437.540187
v 218.615294 199.410767 515.772815
v 399.259940 199.410767 437.540187
v 140.382668 199.410767 335.128175
v 321.027315 199.410767 256.895547
v 140.382668 2.553388 335.128175
v 321.027315 2.553388 256.895547
vt 0.375000 0.000000
vt 0.625000 0.000000
vt 0.625000 0.250000
vt 0.375000 0.250000
vt 0.625000 0.500000
vt 0.375000 0.500000
vt 0.625000 0.750000
vt 0.375000 0.750000
vt 0.625000 1.000000
vt 0.375000 1.000000
vt 0.875000 0.000000
vt 0.875000 0.250000
vt 0.125000 0.000000
vt 0.125000 0.250000
vn 0.397408 0.000000 0.917642
vn 0.397408 0.000000 0.917642
vn 0.397408 0.000000 0.917642
vn 0.397408 0.000000 0.917642
vn 0.000000 1.000000 0.000000
vn 0.000000 1.000000 0.000000
vn 0.000000 1.000000 0.000000
vn 0.000000 1.000000 0.000000
vn -0.397408 0.000000 -0.917642
vn -0.397408 0.000000 -0.917642
vn -0.397408 0.000000 -0.917642
vn -0.397408 0.000000 -0.917642
vn 0.000000 -1.000000 0.000000
vn 0.000000 -1.000000 0.000000
vn 0.000000 -1.000000 0.000000
vn 0.000000 -1.000000 0.000000
vn 0.917642 0.000000 -0.397408
vn 0.917642 0.000000 -0.397408
vn 0.917642 0.000000 -0.397408
vn 0.917642 0.000000 -0.397408
vn -0.917642 0.000000 0.397408
vn -0.917642 0.000000 0.397408
vn -0.917642 0.000000 0.397408
vn -0.917642 0.000000 0.397408
s 1
g back:pCube1
usemtl back:DiffuseWhite
f 13/13/19 14/14/20 15/16/21
f 15/16/21 14/14/20 16/15/22
s 2
f 15/16/23 16/15/24 17/18/25
f 17/18/25 16/15/24 18/17/26
s 3
f 17/18/27 18/17/28 19/20/29
f 19/20/29 18/17/28 20/19/30
s 4
f 19/20/31 20/19/32 13/22/33
f 13/22/33 20/19/32 14/21/34
s 5
f 14/14/35 20/23/36 16/15/37
f 16/15/37 20/23/36 18/24/38
s 6
f 19/25/39 13/13/40 17/26/41
f 17/26/41 13/13/40 15/16/42
g default
v 552.799988 0.000000 0.000000
v 549.599976 0.000000 559.200012
v 556.000000 548.799988 559.200012
v 556.000000 548.799988 0.000000
vt 0.000000 0.000000
vt 0.000000 0.000000
vt 0.000000 0.000000
vt 0.000000 0.000000
vn -0.999916 0.011661 -0.005722
vn -0.999916 0.011661 -0.005722
vn -0.999916 0.011661 -0.005722
vn -0.999958 0.008746 -0.002861
vn -0.999958 0.008746 -0.002861
vn -0.999958 0.008746 -0.002861
s off
g back:Mesh5
usemtl back:LeftWall
f 21/27/43 22/28/44 23/29/45
f 21/27/46 23/29/47 24/30/48
g default
v 0.000000 0.000000 559.200012
v 0.000000 0.000000 0.000000
v 0.000000 548.799988 0.000000
v 0.000000 548.799988 559.200012
vt 0.000000 0.000000
vt 0.000000 0.000000
vt 0.000000 0.000000
vt 0.000000 0.000000
vn 1.000000 0.000000 0.000000
vn 1.000000 0.000000 0.000000
vn 1.000000 0.000000 0.000000
vn 1.000000 0.000000 0.000000
vn 1.000000 0.000000 0.000000
vn 1.000000 0.000000 0.000000
s off
g back:Mesh6
usemtl back:RightWall
f 25/31/49 26/32/50 27/33/51
f 25/31/52 27/33/53 28/34/54
g default
v 552.799988 0.000000 0.000000
v 0.000000 0.000000 0.000000
v 0.000000 0.000000 559.200012
v 549.599976 0.000000 559.200012
vt 0.000000 0.000000
vt 0.000000 0.000000
vt 0.000000 0.000000
vt 0.000000 0.000000
vn 0.000000 1.000000 0.000000
vn 0.000000 1.000000 0.000000
vn 0.000000 1.000000 0.000000
vn 0.000000 1.000000 0.000000
vn 0.000000 1.000000 0.000000
vn 0.000000 1.000000 0.000000
s off
g back:Mesh2
usemtl back:DiffuseWhite
f 29/35/55 30/36/56 31/37/57
f 29/35/58 31/37/59 32/38/60
g default
v 549.599976 0.000000 559.200012
v 0.000000 0.000000 559.200012
v 0.000000 548.799988 559.200012
v 556.000000 548.799988 559.200012
vt 0.000000 0.000000
vt 0.000000 0.000000
vt 0.000000 0.000000
vt 0.000000 0.000000
vn 0.000000 0.000000 -1.000000
vn 0.000000 0.000000 -1.000000
vn 0.000000 0.000000 -1.000000
vn 0.000000 0.000000 -1.000000
vn 0.000000 0.000000 -1.000000
vn 0.000000 0.000000 -1.000000
s off
g back:Mesh4
usemtl back:DiffuseWhite
f 33/39/61 34/40/62 35/41/63
f 33/39/64 35/41/65 36/42/66
